<?xml version="1.0" encoding="UTF-8" standalone="no"?>
<!DOCTYPE svg PUBLIC "-//W3C//DTD SVG 1.1//EN" "http://www.w3.org/Graphics/SVG/1.1/DTD/svg11.dtd">
<svg width="100%" height="100%" viewBox="0 0 3000 3000" version="1.1" xmlns="http://www.w3.org/2000/svg" xmlns:xlink="http://www.w3.org/1999/xlink" xml:space="preserve" xmlns:serif="http://www.serif.com/" style="fill-rule:evenodd;clip-rule:evenodd;stroke-linejoin:round;stroke-miterlimit:2;">
    <path d="M3000,240L3000,2760C3000,2892.46 2892.46,3000 2760,3000L240,3000C107.54,3000 0,2892.46 0,2760L0,240C0,107.54 107.54,0 240,0L2760,0C2892.46,0 3000,107.54 3000,240Z" style="fill:#282828;"/>
    <g transform="matrix(3.019071,0,0,3.019071,-1946.206258,-2509.016166)">
        <g transform="matrix(938.305528,0,0,938.305528,906.90276,1533.151736)">
            <path d="M0,0.188L0,0.125L0.062,0.125L0.062,0.188L0,0.188ZM0.25,0.125L0.25,0.062L0.188,0.062L0.188,-0L0,-0L0,0.125L-0.062,0.125L-0.062,-0L0,-0L0,-0.062L0.062,-0.062L0.062,-0.188L0,-0.188L0,-0.375L0.062,-0.375L0.062,-0.438L0.125,-0.438L0.125,-0.5L0.188,-0.5L0.188,-0.562L0.312,-0.562L0.312,-0.5L0.375,-0.5L0.375,-0.438L0.5,-0.438L0.5,-0.375L0.438,-0.375L0.438,-0.312L0.5,-0.312L0.5,-0.062L0.438,-0.062L0.438,-0L0.375,-0L0.375,0.062L0.312,0.062L0.312,0.125L0.25,0.125ZM0.375,-0.062L0.375,-0.188L0.188,-0.188L0.188,-0.125L0.312,-0.125L0.312,-0.062L0.375,-0.062ZM0.125,-0.25L0.25,-0.25L0.25,-0.312L0.312,-0.312L0.312,-0.375L0.25,-0.375L0.25,-0.438L0.188,-0.438L0.188,-0.375L0.125,-0.375L0.125,-0.25ZM0.5,-0.438L0.5,-0.562L0.562,-0.562L0.562,-0.438L0.5,-0.438ZM0.5,-0.562L0.375,-0.562L0.375,-0.625L0.5,-0.625L0.5,-0.562Z" style="fill:#8aff8c;fill-rule:nonzero;"/>
        </g>
    </g>
</svg>
